<?xml version="1.0" encoding="UTF-8"?>
<svg width="24px" height="24px" viewBox="0 0 24 24" version="1.1" xmlns="http://www.w3.org/2000/svg" xmlns:xlink="http://www.w3.org/1999/xlink">
    <!-- Generator: Sketch 62 (91390) - https://sketch.com -->
    <title>집반찬연구소/call</title>
    <desc>Created with Sketch.</desc>
    <defs>
        <path d="M5.0883,7.2079 C5.1948,7.7384 5.7203,9.9129 7.5843,12.5004 C7.5908,12.5089 7.5958,12.5174 7.6013,12.5259 C7.9563,13.0874 8.5963,13.9534 9.6303,14.8899 C9.6338,14.8934 9.6373,14.8964 9.6408,14.8999 C11.0183,16.2244 12.6688,17.2299 14.5463,17.8894 C14.5543,17.8924 14.5628,17.8954 14.5708,17.8989 C17.0763,18.9324 18.0353,18.6509 18.3838,18.3914 C18.7878,18.0904 18.7383,17.5534 18.7363,17.5304 C18.7353,17.5194 18.7338,17.5029 18.7333,17.4919 L18.6523,15.1214 C18.6223,14.9749 18.4473,14.3069 17.7048,14.2189 C16.4908,14.0749 15.5463,13.6109 15.3908,13.5309 C15.3158,13.5034 14.9293,13.3979 14.4983,13.9154 L13.6173,14.9984 C13.4663,15.1849 13.2038,15.2374 12.9928,15.1234 C12.9593,15.1054 12.1593,14.6734 11.2248,13.9789 C11.2123,13.9699 11.1998,13.9599 11.1883,13.9494 C9.7223,12.6284 8.6583,10.7824 8.6138,10.7044 C8.4963,10.4989 8.5388,10.2394 8.7163,10.0819 L9.7628,9.1529 C10.2698,8.6924 10.1293,8.2829 10.1038,8.2214 C10.0433,8.0999 9.5868,7.1604 9.3523,5.9464 C9.1913,5.1089 8.5413,5.0104 8.4413,4.9999 L6.0743,4.9999 C6.0683,4.9999 6.0623,4.9999 6.0558,4.99939917 C6.0558,4.99939917 5.5738,4.9964 5.2768,5.3509 C4.9948,5.6869 4.9268,6.2824 5.0803,7.0729 C5.0893,7.1184 5.0913,7.1639 5.0883,7.2079 M17.4423,19.6289 C16.5813,19.6289 15.4983,19.3619 14.2023,18.8284 C12.1958,18.1224 10.4303,17.0449 8.9533,15.6259 C7.8468,14.6229 7.1538,13.6864 6.7643,13.0729 C4.4793,9.8959 4.0913,7.3339 4.0753,7.2269 C4.0703,7.1894 4.0693,7.1524 4.0718,7.1164 C3.8943,6.0649 4.0458,5.2499 4.5238,4.6924 C5.1043,4.0154 5.9498,4.0004 6.0778,3.9999 L8.4618,3.9999 C8.4723,3.9999 8.4833,4.0004 8.4938,4.0009 C9.0198,4.0349 10.0813,4.4459 10.3343,5.7569 C10.5533,6.8939 10.9963,7.7699 11.0008,7.7789 C11.0258,7.8289 11.5353,8.8939 10.4308,9.8969 L9.6928,10.5524 C10.0578,11.1264 10.8623,12.3044 11.8403,13.1904 C12.3423,13.5624 12.8073,13.8559 13.1103,14.0374 L13.7263,13.2804 C14.6888,12.1234 15.7688,12.6034 15.8143,12.6244 C15.8228,12.6289 15.8313,12.6329 15.8398,12.6374 C15.8473,12.6419 16.7153,13.0944 17.8223,13.2259 C19.0778,13.3739 19.5638,14.4479 19.6453,14.9949 C19.6478,15.0139 19.6498,15.0324 19.6503,15.0514 L19.7323,17.4434 C19.7478,17.6249 19.7868,18.5809 18.9963,19.1819 C18.6043,19.4799 18.0853,19.6289 17.4423,19.6289" id="path-1"></path>
    </defs>
    <g id="집반찬연구소/call" stroke="none" stroke-width="1" fill="none" fill-rule="evenodd">
        <mask id="mask-2" fill="white">
            <use xlink:href="#path-1"></use>
        </mask>
        <use id="Mask" fill="#1D1D1B" xlink:href="#path-1"></use>
        <g id="color/b" mask="url(#mask-2)" fill="#000000">
            <rect id="Rectangle" x="0" y="0" width="24" height="24"></rect>
        </g>
    </g>
</svg>