<?xml version="1.0" encoding="UTF-8"?>
<svg width="24px" height="24px" viewBox="0 0 24 24" version="1.1" xmlns="http://www.w3.org/2000/svg" xmlns:xlink="http://www.w3.org/1999/xlink">
    <!-- Generator: Sketch 62 (91390) - https://sketch.com -->
    <title>집반찬연구소/massage</title>
    <desc>Created with Sketch.</desc>
    <defs>
        <path d="M5.00045,16.5404 L5.00995,8.3694 L11.55195,12.7264 C11.63595,12.7824 11.73245,12.8104 11.82895,12.8104 C11.92545,12.8104 12.02145,12.7824 12.10545,12.7274 L18.65645,8.3844 L18.64795,16.5554 L5.00045,16.5404 Z M17.40595,8.0144 L11.82945,11.7104 L6.26195,8.0019 L17.40595,8.0144 Z M19.51195,7.1634 C19.42345,7.0744 19.30445,7.0264 19.17995,7.0209 L19.16695,7.0179 C19.16395,7.0179 19.16145,7.0164 19.15845,7.0164 L4.51095,6.9999 L4.51095,6.9999 C4.50795,6.9999 4.50595,7.0014 4.50295,7.0019 C4.49845,7.0024 4.49395,7.0034 4.48945,7.0044 C4.22395,7.0159 4.01095,7.2309 4.01095,7.4994 L3.99995,17.0389 C3.99995,17.1719 4.05245,17.2994 4.14645,17.3929 C4.23995,17.4874 4.36695,17.5394 4.49995,17.5394 L19.14645,17.5559 L19.14745,17.5559 C19.27995,17.5559 19.40645,17.5039 19.50045,17.4099 C19.59395,17.3164 19.64695,17.1894 19.64745,17.0564 L19.65795,7.5169 C19.65795,7.3844 19.60545,7.2574 19.51195,7.1634 L19.51195,7.1634 Z" id="path-1"></path>
    </defs>
    <g id="집반찬연구소/massage" stroke="none" stroke-width="1" fill="none" fill-rule="evenodd">
        <mask id="mask-2" fill="white">
            <use xlink:href="#path-1"></use>
        </mask>
        <use id="Mask" fill="#1D1D1B" xlink:href="#path-1"></use>
        <g id="color/g-7" mask="url(#mask-2)" fill="#757575">
            <rect id="Rectangle" x="0" y="0" width="24" height="24"></rect>
        </g>
    </g>
</svg>