<?xml version="1.0" encoding="utf-8"?>
<!-- Generator: Adobe Illustrator 24.2.1, SVG Export Plug-In . SVG Version: 6.00 Build 0)  -->
<svg version="1.1" id="레이어_1" xmlns="http://www.w3.org/2000/svg" xmlns:xlink="http://www.w3.org/1999/xlink" x="0px"
	 y="0px" viewBox="0 0 24 24" style="enable-background:new 0 0 24 24;" xml:space="preserve">
<style type="text/css">
	.st0{fill-rule:evenodd;clip-rule:evenodd;fill:#FFFFFF;}
	.st1{filter:url(#Adobe_OpacityMaskFilter);}
	.st2{mask:url(#mask-2_1_);}
</style>
<desc>Created with Sketch.</desc>
<g>
	<g id="Mask">
		<path id="path-1_1_" class="st0" d="M6,10.7C6,7.5,8.5,5,11.7,5c3.1,0,5.7,2.5,5.7,5.7s-2.5,5.7-5.7,5.7C8.5,16.3,6,13.8,6,10.7
			 M19.7,18.2l-3.1-3.1c1.1-1.2,1.7-2.7,1.7-4.4c0-3.7-3-6.7-6.7-6.7S5,7,5,10.7s3,6.7,6.7,6.7c1.6,0,3.1-0.6,4.2-1.5l3.1,3.1
			c0.1,0.1,0.2,0.1,0.4,0.1c0.1,0,0.3,0,0.4-0.1C19.9,18.7,19.9,18.4,19.7,18.2"/>
	</g>
	<defs>
		<filter id="Adobe_OpacityMaskFilter" filterUnits="userSpaceOnUse" x="0" y="0" width="24" height="24">
			<feColorMatrix  type="matrix" values="1 0 0 0 0  0 1 0 0 0  0 0 1 0 0  0 0 0 1 0"/>
		</filter>
	</defs>
	<mask maskUnits="userSpaceOnUse" x="0" y="0" width="24" height="24" id="mask-2_1_">
		<g class="st1">
			<path id="path-1_2_" class="st0" d="M6,10.7C6,7.5,8.5,5,11.7,5c3.1,0,5.7,2.5,5.7,5.7s-2.5,5.7-5.7,5.7C8.5,16.3,6,13.8,6,10.7
				 M19.7,18.2l-3.1-3.1c1.1-1.2,1.7-2.7,1.7-4.4c0-3.7-3-6.7-6.7-6.7S5,7,5,10.7s3,6.7,6.7,6.7c1.6,0,3.1-0.6,4.2-1.5l3.1,3.1
				c0.1,0.1,0.2,0.1,0.4,0.1c0.1,0,0.3,0,0.4-0.1C19.9,18.7,19.9,18.4,19.7,18.2"/>
		</g>
	</mask>
	<g id="color_x2F_g-7" class="st2">
		<rect id="Rectangle" y="0" class="st0" width="24" height="24"/>
	</g>
</g>
</svg>
