<?xml version="1.0" encoding="UTF-8"?>
<svg width="44px" height="8px" viewBox="0 0 44 8" version="1.1" xmlns="http://www.w3.org/2000/svg" xmlns:xlink="http://www.w3.org/1999/xlink">
    <!-- Generator: Sketch 63.1 (92452) - https://sketch.com -->
    <title>Group 16</title>
    <desc>Created with Sketch.</desc>
    <g id="UI" stroke="none" stroke-width="1" fill="none" fill-rule="evenodd">
        <g id="Artboard" transform="translate(-588.000000, -2141.000000)" fill="#D8D8D8">
            <g id="Group-16" transform="translate(588.000000, 2141.000000)">
                <polygon id="Star" points="4 6 1.64885899 7.23606798 2.09788697 4.61803399 0.195773935 2.76393202 2.8244295 2.38196601 4 0 5.1755705 2.38196601 7.80422607 2.76393202 5.90211303 4.61803399 6.35114101 7.23606798"></polygon>
                <polygon id="Star-Copy" points="13 6 10.648859 7.23606798 11.097887 4.61803399 9.19577393 2.76393202 11.8244295 2.38196601 13 0 14.1755705 2.38196601 16.8042261 2.76393202 14.902113 4.61803399 15.351141 7.23606798"></polygon>
                <polygon id="Star-Copy-2" points="22 6 19.648859 7.23606798 20.097887 4.61803399 18.1957739 2.76393202 20.8244295 2.38196601 22 0 23.1755705 2.38196601 25.8042261 2.76393202 23.902113 4.61803399 24.351141 7.23606798"></polygon>
                <polygon id="Star-Copy-3" points="31 6 28.648859 7.23606798 29.097887 4.61803399 27.1957739 2.76393202 29.8244295 2.38196601 31 0 32.1755705 2.38196601 34.8042261 2.76393202 32.902113 4.61803399 33.351141 7.23606798"></polygon>
                <polygon id="Star-Copy-4" points="40 6 37.648859 7.23606798 38.097887 4.61803399 36.1957739 2.76393202 38.8244295 2.38196601 40 0 41.1755705 2.38196601 43.8042261 2.76393202 41.902113 4.61803399 42.351141 7.23606798"></polygon>
            </g>
        </g>
    </g>
</svg>